<svg width="19" height="17" viewBox="0 0 19 17" fill="none"
  xmlns="http://www.w3.org/2000/svg">
  <path d="M17.7137 3.36815C17.4366 2.72651 17.0371 2.14506 16.5374 1.65635C16.0374 1.16619 15.4478 0.776664 14.8008 0.508957C14.1299 0.23026 13.4103 0.0876063 12.6838 0.0892784C11.6646 0.0892784 10.6702 0.368375 9.806 0.895557C9.59926 1.02167 9.40286 1.16018 9.2168 1.3111C9.03073 1.16018 8.83433 1.02167 8.62759 0.895557C7.76343 0.368375 6.76901 0.0892784 5.7498 0.0892784C5.01588 0.0892784 4.3047 0.22986 3.6328 0.508957C2.98364 0.777717 2.39857 1.16432 1.8962 1.65635C1.39588 2.14451 0.996219 2.72609 0.719856 3.36815C0.43249 4.03591 0.285706 4.74502 0.285706 5.47481C0.285706 6.16325 0.426288 6.88063 0.705384 7.61041C0.938998 8.22029 1.27391 8.85291 1.70186 9.49173C2.37996 10.5027 3.31235 11.557 4.47009 12.6259C6.38862 14.3976 8.28854 15.6215 8.36917 15.6711L8.85914 15.9854C9.07621 16.1239 9.35531 16.1239 9.57239 15.9854L10.0624 15.6711C10.143 15.6195 12.0408 14.3976 13.9614 12.6259C15.1192 11.557 16.0516 10.5027 16.7297 9.49173C17.1576 8.85291 17.4946 8.22029 17.7261 7.61041C18.0052 6.88063 18.1458 6.16325 18.1458 5.47481C18.1479 4.74502 18.0011 4.03591 17.7137 3.36815ZM9.2168 14.3501C9.2168 14.3501 1.85692 9.63438 1.85692 5.47481C1.85692 3.36815 3.59972 1.66049 5.7498 1.66049C7.26105 1.66049 8.57177 2.50398 9.2168 3.73614C9.86182 2.50398 11.1725 1.66049 12.6838 1.66049C14.8339 1.66049 16.5767 3.36815 16.5767 5.47481C16.5767 9.63438 9.2168 14.3501 9.2168 14.3501Z" fill="black"/>
</svg>
